<?xml version="1.0" encoding="utf-8"?>
<!-- Generator: Adobe Illustrator 16.0.0, SVG Export Plug-In . SVG Version: 6.00 Build 0)  -->
<!DOCTYPE svg PUBLIC "-//W3C//DTD SVG 1.1//EN" "http://www.w3.org/Graphics/SVG/1.1/DTD/svg11.dtd">
<svg version="1.1" id="Layer_1" xmlns="http://www.w3.org/2000/svg" xmlns:xlink="http://www.w3.org/1999/xlink" x="0px" y="0px"
	 width="284.82px" height="59.734px" viewBox="0 0 284.82 59.734" enable-background="new 0 0 284.82 59.734" xml:space="preserve">
<path fill="#F89728" d="M70.615,59.734V51.96h-1.842c-1.662,0-3.576-1.57-3.627-3.66V11.039c0-2.016,1.965-3.727,3.699-3.715
	l1.889-0.012L70.748,0H46.771l-0.004,7.312h1.771c1.732,0,3.756,1.711,3.756,3.727v37.25c0,2.011-2.023,3.644-3.631,3.644h-2.018
	v7.801H70.615"/>
<path fill="#F89728" d="M256.598,0L237.52,0.004l0.033,7.332l1.807-0.023c1.73,0,3.586,2.039,3.586,4.051l0.031,36.938
	c0,2.062-1.891,3.632-3.627,3.632h-1.861l-0.004,7.77h19.83v-7.77l-1.791,0.012c-1.631,0-3.688-1.57-3.688-3.441l0.01-26.98
	l14.871,38.179h12.605l0.008-48.769c0-2.02,1.98-3.598,3.887-3.598h1.604V0h-19.799v7.336h1.932c1.664,0,3.678,1.547,3.678,3.574
	v23.98L256.598,0"/>
<path fill="#F89728" d="M190.066,51.933c-1.895,0-2.143-0.672-3.916-3.007c0,0-12.91-18.223-15-21.297
	c1.371-2.027,13.051-18.949,13.051-18.949c0.73-0.914,1.188-1.367,2.5-1.367h2.166l-0.006-7.297L168.73,0v7.312h1.242
	c0.787,0,1.109,0.262,1.373,0.59c0.645,0.805-0.578,2.453-0.902,2.871L160.41,25.43l-0.014-14.52c0-2.016,1.875-3.598,3.609-3.598
	h1.893L165.871,0h-24.326v7.324l1.902-0.004c1.676,0,3.51,1.633,3.51,3.59l-0.004,37.371c0,2.003-1.93,3.66-3.664,3.66l-1.855-0.008
	v7.781h24.621l0.002-7.781h-1.836c-1.734,0.016-3.838-1.504-3.838-3.664l0.021-16.328c0.945,1.109,11.697,17.176,11.697,17.176
	c1.371,2.816-0.652,2.816-1.57,2.816h-1.41l-0.023,7.781l21.521-0.012l-0.027-7.77H190.066"/>
<path fill="#F89728" d="M193.623,59.703h39.912V44.371l-6.664,0.016l0.004,3.965c0,2.019-2.023,3.582-3.662,3.582h-10.775
	l0.004-19.984l4.297,0.012c1.773,0,3.65,2.09,3.65,3.652l0.02,2.332l6.527,0.004V19.332h-6.527l-0.02,2.289
	c0,2.02-1.459,3.543-3.477,3.543l-4.475-0.02l-0.01-17.816l10.107-0.016c1.73,0,3.65,1.578,3.65,3.598l0.033,3.852h6.533V0h-39
	v7.312h1.803c1.73,0,3.582,1.574,3.65,3.523v37.543c0,1.628-1.988,3.554-3.721,3.554h-1.861V59.703"/>
<path fill="#F89728" d="M33,59.714v-7.781h-2.496c-2.004-0.016-3.588-1.648-3.588-3.652L26.902,7.312h5.238
	c2.02,0,3.65,1.637,3.65,3.648l0.01,5.199l5.809,0.004V0H0.012L0,16.188l5.824-0.004v-5.195c0-2.023,1.639-3.652,3.654-3.652
	l5.238-0.012l-0.018,40.973c0,2.011-1.576,3.621-3.584,3.636H8.621v7.77L33,59.714"/>
<path fill="#F89728" d="M81.885,10.965c0-2.031-1.92-3.652-3.65-3.652c-1.736,0-1.85,0-1.85,0L76.389,0h19.172l10.484,35.594
	L116.566,0h19.246v7.312h-1.805c-1.734,0-3.685,1.664-3.697,3.664l0.006,37.43c0,2,1.896,3.527,3.629,3.527h1.8v7.77H113.93
	l-0.014-7.77h1.123c1.684,0,2.939-1.57,2.939-3.585l0.037-26.711L106.84,59.703h-5.518l-10.77-37.839l-0.037,26.496
	c0,2.003,1.27,3.574,2.969,3.574h1.107v7.77H76.299v-7.77l1.865,0.012c1.734,0,3.688-1.57,3.688-3.609
	C81.852,48.336,81.885,13,81.885,10.965"/>
<g>
</g>
<g>
</g>
<g>
</g>
<g>
</g>
<g>
</g>
<g>
</g>
<g>
</g>
<g>
</g>
<g>
</g>
<g>
</g>
<g>
</g>
<g>
</g>
</svg>
