<?xml version="1.0" encoding="iso-8859-1"?>
   <!DOCTYPE svg PUBLIC "-//W3C//DTD SVG 1.0//EN"
     "http://www.w3.org/TR/2001/
      REC-SVG-20010904/DTD/svg10.dtd"><svg xmlns="http://www.w3.org/2000/svg" width="250" height="250" aria-label="A chart." aria-hidden="true" style="overflow: hidden;"><defs id="defs"/><rect x="0" y="0" width="250" height="250" stroke="none" stroke-width="0" fill="#ffffff"/><g><path d="M126,126L110.06073811339205,15.139998509335541A112,112,0,0,1,126,14L126,126A0,0,0,0,0,126,126" stroke="#ffffff" stroke-width="2" fill="#59c7fa"/></g><g><path d="M126,126L52.655597798127985,41.35604767232316A112,112,0,0,1,110.06073811339205,15.139998509335541L126,126A0,0,0,0,0,126,126" stroke="#ffffff" stroke-width="2" fill="#4ed963"/></g><g><path d="M126,126L14,126.00000000000001A112,112,0,0,1,52.655597798127985,41.35604767232316L126,126A0,0,0,0,0,126,126" stroke="#ffffff" stroke-width="2" fill="#ffc800"/></g><g><path d="M126,126L126,14A112,112,0,1,1,14,126.00000000000001L126,126A0,0,0,1,0,126,126" stroke="#ffffff" stroke-width="2" fill="#ff3a30"/></g><g/></svg>