<?xml version="1.0" encoding="iso-8859-1"?>
   <!DOCTYPE svg PUBLIC "-//W3C//DTD SVG 1.0//EN"
     "http://www.w3.org/TR/2001/
      REC-SVG-20010904/DTD/svg10.dtd"><svg xmlns="http://www.w3.org/2000/svg" width="250" height="250" aria-label="A chart." aria-hidden="true" style="overflow: hidden;"><defs id="defs"/><rect x="0" y="0" width="250" height="250" stroke="none" stroke-width="0" fill="#ffffff"/><g><path d="M126,126L126,14A112,112,0,0,1,199.34440220187193,210.6439523276769L126,126A0,0,0,0,0,126,126" stroke="#ffffff" stroke-width="2" fill="#ff3a30"/></g><g><path d="M126,126L31.7796043229077,65.44822844497307A112,112,0,0,1,126,14L126,126A0,0,0,0,0,126,126" stroke="#ffffff" stroke-width="2" fill="#59c7fa"/></g><g><path d="M126,126L41.356047672323086,199.34440220187196A112,112,0,0,1,31.7796043229077,65.44822844497307L126,126A0,0,0,0,0,126,126" stroke="#ffffff" stroke-width="2" fill="#4ed963"/></g><g><path d="M126,126L199.34440220187193,210.6439523276769A112,112,0,0,1,41.356047672323086,199.34440220187196L126,126A0,0,0,0,0,126,126" stroke="#ffffff" stroke-width="2" fill="#ffc800"/></g><g/></svg>