<?xml version="1.0" encoding="iso-8859-1"?>
   <!DOCTYPE svg PUBLIC "-//W3C//DTD SVG 1.0//EN"
     "http://www.w3.org/TR/2001/
      REC-SVG-20010904/DTD/svg10.dtd"><svg xmlns="http://www.w3.org/2000/svg" width="250" height="250" aria-label="A chart." aria-hidden="true" style="overflow: hidden;"><defs id="defs"/><rect x="0" y="0" width="250" height="250" stroke="none" stroke-width="0" fill="#ffffff"/><g><path d="M126,126L126,14A112,112,0,0,1,208.40107799539075,201.85553602208296L126,126A0,0,0,0,0,126,126" stroke="#ffffff" stroke-width="2" fill="#ff3a30"/></g><g><path d="M126,126L89.63365944907534,20.06846892952896A112,112,0,0,1,126,14L126,126A0,0,0,0,0,126,126" stroke="#ffffff" stroke-width="2" fill="#007bff"/></g><g><path d="M126,126L57.208176178757185,37.61626294760393A112,112,0,0,1,89.63365944907552,20.06846892952889L126,126A0,0,0,0,0,126,126" stroke="#ffffff" stroke-width="2" fill="#59c7fa"/></g><g><path d="M126,126L17.427170214794998,98.50562544023047A112,112,0,0,1,57.208176178757185,37.61626294760393L126,126A0,0,0,0,0,126,126" stroke="#ffffff" stroke-width="2" fill="#ffc800"/></g><g><path d="M126,126L208.40107799539075,201.85553602208296A112,112,0,0,1,17.427170214794998,98.50562544023047L126,126A0,0,0,0,0,126,126" stroke="#ffffff" stroke-width="2" fill="#ff9100"/></g><g/></svg>